<svg xmlns="http://www.w3.org/2000/svg" xmlns:xlink="http://www.w3.org/1999/xlink" width="75" zoomAndPan="magnify" viewBox="0 0 56.25 37.499999" height="50" preserveAspectRatio="xMidYMid meet" version="1.0"><defs><clipPath id="b20bcafd9a"><path d="M 17.832031 0 L 37.816406 0 L 37.816406 37.007812 L 17.832031 37.007812 Z M 17.832031 0 " clip-rule="nonzero"/></clipPath></defs><g clip-path="url(#b20bcafd9a)"><path fill="#ffffff" d="M 32.820312 0 C 27.574219 0 24.496094 2.75 24.496094 9.023438 L 24.496094 14.539062 L 17.84375 14.539062 L 17.84375 21.148438 L 24.496094 21.148438 L 24.496094 37.007812 L 31.152344 37.007812 L 31.152344 21.148438 L 36.476562 21.148438 L 37.804688 14.539062 L 31.152344 14.539062 L 31.152344 10.140625 C 31.152344 7.777344 31.925781 6.609375 34.160156 6.609375 L 37.804688 6.609375 L 37.804688 0.269531 C 37.175781 0.1875 35.335938 0 32.820312 0 Z M 32.820312 0 " fill-opacity="1" fill-rule="nonzero"/></g></svg>