<svg xmlns="http://www.w3.org/2000/svg" xmlns:xlink="http://www.w3.org/1999/xlink" width="75" zoomAndPan="magnify" viewBox="0 0 56.25 37.499999" height="50" preserveAspectRatio="xMidYMid meet" version="1.0"><path fill="#ffffff" d="M 25.257812 1.070312 C 16.9375 1.992188 10.160156 8.730469 9.15625 17.0625 C 9.027344 18.113281 8.988281 19.164062 9.039062 20.21875 C 9.085938 21.277344 9.226562 22.320312 9.457031 23.351562 C 9.683594 24.382812 10 25.390625 10.402344 26.367188 C 10.800781 27.34375 11.28125 28.28125 11.84375 29.175781 C 12.40625 30.070312 13.039062 30.910156 13.742188 31.695312 C 14.449219 32.480469 15.214844 33.199219 16.042969 33.851562 C 16.871094 34.507812 17.746094 35.082031 18.675781 35.585938 C 19.601562 36.085938 20.5625 36.507812 21.5625 36.84375 C 22.480469 36.988281 22.773438 36.417969 22.773438 35.921875 L 22.773438 32.8125 C 17.695312 33.917969 16.613281 30.34375 16.613281 30.34375 C 15.769531 28.210938 14.574219 27.640625 14.574219 27.640625 C 12.90625 26.496094 14.707031 26.535156 14.707031 26.535156 C 16.539062 26.664062 17.511719 28.429688 17.511719 28.429688 C 19.109375 31.230469 21.804688 30.398438 22.847656 29.957031 C 23.011719 28.761719 23.496094 27.953125 24.003906 27.492188 C 19.925781 27.03125 15.65625 25.449219 15.65625 18.4375 C 15.65625 16.394531 16.355469 14.753906 17.546875 13.449219 C 17.363281 12.988281 16.722656 11.074219 17.730469 8.589844 C 17.730469 8.589844 19.269531 8.09375 22.773438 10.46875 C 25.832031 9.640625 28.886719 9.640625 31.945312 10.46875 C 35.449219 8.09375 36.988281 8.589844 36.988281 8.589844 C 37.996094 11.074219 37.355469 12.988281 37.171875 13.449219 C 38.363281 14.75 39.0625 16.394531 39.0625 18.4375 C 39.0625 25.464844 34.769531 27.011719 30.679688 27.472656 C 31.339844 28.042969 31.945312 29.167969 31.945312 30.878906 L 31.945312 35.921875 C 31.945312 36.417969 32.238281 37.007812 33.175781 36.84375 C 34.242188 36.484375 35.265625 36.03125 36.25 35.484375 C 37.230469 34.9375 38.15625 34.304688 39.023438 33.585938 C 39.890625 32.867188 40.6875 32.074219 41.410156 31.210938 C 42.132812 30.34375 42.769531 29.421875 43.324219 28.4375 C 43.875 27.457031 44.335938 26.433594 44.703125 25.363281 C 45.066406 24.296875 45.332031 23.207031 45.5 22.089844 C 45.664062 20.972656 45.726562 19.851562 45.6875 18.722656 C 45.648438 17.59375 45.507812 16.480469 45.261719 15.378906 C 45.019531 14.277344 44.675781 13.207031 44.238281 12.167969 C 43.796875 11.128906 43.265625 10.140625 42.648438 9.199219 C 42.027344 8.257812 41.324219 7.382812 40.542969 6.570312 C 39.761719 5.757812 38.914062 5.027344 37.996094 4.371094 C 37.082031 3.714844 36.113281 3.148438 35.09375 2.671875 C 34.074219 2.195312 33.019531 1.816406 31.933594 1.535156 C 30.84375 1.253906 29.738281 1.074219 28.617188 0.992188 C 27.492188 0.914062 26.375 0.941406 25.257812 1.070312 Z M 25.257812 1.070312 " fill-opacity="1" fill-rule="nonzero"/></svg>