<svg xmlns="http://www.w3.org/2000/svg" xmlns:xlink="http://www.w3.org/1999/xlink" width="75" zoomAndPan="magnify" viewBox="0 0 56.25 37.499999" height="50" preserveAspectRatio="xMidYMid meet" version="1.0"><defs><clipPath id="62879743a1"><path d="M 9.25 0 L 46.257812 0 L 46.257812 37.007812 L 9.25 37.007812 Z M 9.25 0 " clip-rule="nonzero"/></clipPath></defs><g clip-path="url(#62879743a1)"><path fill="#ffffff" d="M 43.167969 0 L 12.363281 0 C 10.660156 0 9.289062 1.386719 9.289062 3.074219 L 9.289062 33.933594 C 9.289062 35.636719 10.675781 37.007812 12.363281 37.007812 L 43.148438 37.007812 C 44.851562 37.007812 46.222656 35.617188 46.222656 33.933594 L 46.222656 3.074219 C 46.238281 1.386719 44.871094 0 43.167969 0 Z M 20.230469 30.527344 L 14.769531 30.527344 L 14.769531 14.125 L 20.230469 14.125 Z M 17.488281 12.144531 C 15.769531 12.144531 14.378906 10.753906 14.378906 9.035156 C 14.378906 7.3125 15.769531 5.925781 17.488281 5.925781 C 19.210938 5.925781 20.601562 7.3125 20.601562 9.035156 C 20.601562 10.753906 19.210938 12.144531 17.488281 12.144531 Z M 40.777344 30.527344 L 35.296875 30.527344 L 35.167969 20.789062 C 35.167969 20.789062 35.296875 18.199219 32.464844 18.214844 C 29.632812 18.234375 29.246094 20.789062 29.246094 20.789062 L 29.246094 30.527344 L 23.726562 30.527344 L 23.726562 14.125 L 29.023438 14.125 L 29.023438 16.382812 C 29.023438 16.382812 29.246094 15.644531 30.46875 14.773438 C 31.6875 13.902344 33.707031 13.71875 34.578125 13.753906 C 35.445312 13.792969 36.632812 13.644531 38.613281 15.015625 C 40.742188 16.476562 40.796875 20.308594 40.796875 20.308594 Z M 40.777344 30.527344 " fill-opacity="1" fill-rule="nonzero"/></g></svg>